HIERARCHY
ROOT Pelvis
{
	OFFSET 0.000000 0.000000 0.000000
	CHANNELS 6 Xposition Yposition Zposition Xrotation Yrotation Zrotation
	JOINT LeftUpLeg_virtual
	{
		OFFSET 0.000000 0.000000 0.000000
		CHANNELS 3 Xrotation Yrotation Zrotation
		JOINT LeftUpLeg
		{
			OFFSET 18.735201 -5.666702 -4.541200
			CHANNELS 3 Xrotation Yrotation Zrotation
			JOINT LeftLeg
			{
				OFFSET -0.021200 -31.938179 0.493100
				CHANNELS 3 Xrotation Yrotation Zrotation
				JOINT LeftFoot
				{
					OFFSET 0.021200 -31.938179 -4.336299
					CHANNELS 3 Xrotation Yrotation Zrotation
					JOINT LeftToeBase
					{
						OFFSET 0.943001 -26.722000 15.023500
						CHANNELS 3 Xrotation Yrotation Zrotation
						End Site
						{
							OFFSET 0 0 0
						}
					}
				}
			}
		}
	}
	JOINT RightUpLeg_virtual
	{
		OFFSET 0.000000 0.000000 0.000000
		CHANNELS 3 Xrotation Yrotation Zrotation
		JOINT RightUpLeg
		{
			OFFSET -18.735201 -5.666702 -4.541200
			CHANNELS 3 Xrotation Yrotation Zrotation
			JOINT RightLeg
			{
				OFFSET 0.018946 -31.938133 0.493100
				CHANNELS 3 Xrotation Yrotation Zrotation
				JOINT RightFoot
				{
					OFFSET -0.018946 -31.938126 -4.336299
					CHANNELS 3 Xrotation Yrotation Zrotation
					JOINT RightToeBase
					{
						OFFSET -0.943001 -26.722004 15.023500
						CHANNELS 3 Xrotation Yrotation Zrotation
						End Site
						{
							OFFSET 0 0 0
						}
					}
				}
			}
		}
	}
	JOINT Hips_virtual
	{
		OFFSET 0.000000 0.000000 0.000000
		CHANNELS 3 Xrotation Yrotation Zrotation
		JOINT Hips
		{
			OFFSET -0.000000 -0.000000 -0.000000
			CHANNELS 3 Xrotation Yrotation Zrotation
			JOINT Spine
			{
				OFFSET 0.000000 10.199997 -0.299500
				CHANNELS 3 Xrotation Yrotation Zrotation
				JOINT Spine1
				{
					OFFSET 0.000000 11.900002 -1.516600
					CHANNELS 3 Xrotation Yrotation Zrotation
					JOINT Spine2
					{
						OFFSET 0.000000 13.600006 -2.842500
						CHANNELS 3 Xrotation Yrotation Zrotation
						JOINT Neck_virtual
						{
							OFFSET 0.000000 0.000000 0.000000
							CHANNELS 3 Xrotation Yrotation Zrotation
							JOINT Neck
							{
								OFFSET 0.000000 9.624100 -2.890100
								CHANNELS 3 Xrotation Yrotation Zrotation
								JOINT Head
								{
									OFFSET 0.000000 14.068802 -1.351900
									CHANNELS 3 Xrotation Yrotation Zrotation
									End Site
									{
										OFFSET 0 0 0
									}
								}
							}
						}
						JOINT LeftShoulder_virtual
						{
							OFFSET 0.000000 0.000000 0.000000
							CHANNELS 3 Xrotation Yrotation Zrotation
							JOINT LeftShoulder
							{
								OFFSET 15.263000 10.923401 -0.547700
								CHANNELS 3 Xrotation Yrotation Zrotation
								JOINT LeftArm
								{
									OFFSET 25.438599 -2.830597 -13.032500
									CHANNELS 3 Xrotation Yrotation Zrotation
									JOINT LeftForeArm
									{
										OFFSET 29.960503 0.000000 0.000000
										CHANNELS 3 Xrotation Yrotation Zrotation
										JOINT LeftHand
										{
											OFFSET 27.849251 0.000000 0.000000
											CHANNELS 3 Xrotation Yrotation Zrotation
											End Site
											{
												OFFSET 0 0 0
											}
										}
									}
								}
							}
						}
						JOINT RightShoulder_virtual
						{
							OFFSET 0.000000 0.000000 0.000000
							CHANNELS 3 Xrotation Yrotation Zrotation
							JOINT RightShoulder
							{
								OFFSET -15.263000 10.923401 -0.547700
								CHANNELS 3 Xrotation Yrotation Zrotation
								JOINT RightArm
								{
									OFFSET -25.438599 -2.830597 -13.032500
									CHANNELS 3 Xrotation Yrotation Zrotation
									JOINT RightForeArm
									{
										OFFSET -29.960503 0.000000 0.000000
										CHANNELS 3 Xrotation Yrotation Zrotation
										JOINT RightHand
										{
											OFFSET -27.849251 0.000000 0.000000
											CHANNELS 3 Xrotation Yrotation Zrotation
											End Site
											{
												OFFSET 0 0 0
											}
										}
									}
								}
							}
						}
					}
				}
			}
		}
	}
}
MOTION
Frames: 7
Frame Time: 0.03333333
-5.097956 77.604836 1.577442 0.000000 0.000000 0.000000 10.151755 -53.499304 11.871200 -69.842960 16.602175 44.046299 56.792552 -23.486545 3.045084 8.014390 -1.862313 -17.195273 0.000000 0.000000 0.000000 9.066101 -52.856054 10.540228 -36.599326 3.998914 -33.466930 58.637707 5.324565 -3.619243 -30.616897 -0.240596 29.248711 0.000000 0.000000 0.000000 9.251857 -52.759250 11.338037 -0.368136 -0.197510 -1.069809 17.533480 2.845342 -2.874976 3.818231 5.044449 -4.035618 0.000000 0.000000 0.000000 -5.878338 5.206882 -3.940553 0.969684 1.970200 0.453815 0.000000 0.000000 0.000000 -5.401746 4.957540 -4.351833 -1.734362 -17.695449 -0.561112 -5.344679 4.277912 -42.623273 -26.340510 -39.424135 -23.925879 0.000000 0.000000 0.000000 -6.495230 6.134611 -3.550226 -5.476445 26.511067 1.410656 10.104504 -40.378627 52.448435 -20.009292 46.510662 22.285767 0.000000 0.000000 0.000000 
-4.987969 77.684471 1.451939 0.000000 0.000000 0.000000 10.394160 -54.115220 12.167999 -69.772896 16.640414 44.296779 56.276586 -23.567759 3.038000 7.887858 -2.148851 -17.434862 0.000000 0.000000 0.000000 9.281548 -53.438341 10.880424 -36.796285 4.153131 -33.360474 59.051507 5.248641 -3.583503 -30.670883 -0.173310 29.403613 0.000000 0.000000 0.000000 9.377059 -53.459915 11.560782 -0.390653 -0.189633 -1.085127 17.430916 2.835248 -2.974878 3.746690 5.111368 -4.068678 0.000000 0.000000 0.000000 -5.931736 5.290332 -3.990322 0.906045 1.942596 0.491936 0.000000 0.000000 0.000000 -5.400731 5.038788 -4.390309 -1.762813 -17.518511 -0.721806 -5.746615 4.678499 -42.831498 -26.447387 -39.539060 -24.003634 0.000000 0.000000 0.000000 -6.396221 6.190227 -3.693153 -5.405456 26.103694 1.042714 11.596985 -40.797102 53.635017 -20.436401 47.209807 22.490908 0.000000 0.000000 0.000000 
-4.952576 77.954063 1.173351 0.000000 0.000000 0.000000 10.284106 -54.952516 12.212647 -69.426455 16.933449 44.587195 55.325335 -23.225025 2.846028 7.888327 -2.240749 -17.633011 0.000000 0.000000 0.000000 9.186105 -54.227881 10.966179 -36.898263 4.398625 -33.009741 59.271364 5.366326 -3.655772 -30.627477 0.129964 29.185231 0.000000 0.000000 0.000000 9.194870 -54.392543 11.558985 -0.296894 -0.266630 -1.057607 17.178259 2.890922 -3.078253 3.713116 5.141684 -4.163852 0.000000 0.000000 0.000000 -6.085273 5.386120 -4.101532 0.750707 1.937166 0.519543 0.000000 0.000000 0.000000 -5.392734 5.101728 -4.467724 -1.784975 -17.497799 -0.606878 -6.519366 5.445820 -42.983699 -26.712132 -39.840429 -24.240338 0.000000 0.000000 0.000000 -6.239862 6.294477 -3.870980 -5.294264 25.348135 0.543008 13.714800 -42.059301 54.868009 -22.219017 49.932600 23.802490 0.000000 0.000000 0.000000 
-4.928894 78.312790 0.877293 0.000000 0.000000 0.000000 9.793634 -55.747813 11.932608 -68.931287 17.340645 44.902784 54.459339 -22.433174 2.632612 8.041220 -2.064446 -17.667775 0.000000 0.000000 0.000000 8.785104 -54.980571 10.756841 -36.920970 4.572845 -32.544639 59.226824 5.612666 -3.731095 -30.791712 0.497174 28.463099 0.000000 0.000000 0.000000 8.725883 -55.382975 11.320257 -0.147354 -0.310459 -0.933059 16.873170 2.963833 -3.080056 3.760187 5.099047 -4.259865 0.000000 0.000000 0.000000 -6.313189 5.445471 -4.210697 0.532441 1.969831 0.531304 0.000000 0.000000 0.000000 -5.333611 5.105457 -4.526681 -1.817065 -17.616595 -0.339481 -7.428804 6.411774 -42.946157 -27.126653 -40.241330 -24.638391 0.000000 0.000000 0.000000 -6.041231 6.372425 -4.010450 -5.167331 24.354424 -0.095752 15.688764 -43.865111 55.649496 -25.080806 53.657802 25.971340 0.000000 0.000000 0.000000 
-4.957560 78.649117 0.660828 0.000000 0.000000 0.000000 8.850722 -56.314596 11.288274 -68.257816 17.683633 45.177849 54.236961 -21.383063 2.685428 8.055766 -1.651307 -17.532163 0.000000 0.000000 0.000000 8.056777 -55.544765 10.218497 -36.992223 4.686722 -32.059918 58.907690 6.121689 -3.782657 -30.250283 1.224634 27.693644 0.000000 0.000000 0.000000 8.024902 -56.130256 10.837100 0.009954 -0.353628 -0.751639 16.564121 3.015258 -2.909898 3.897778 4.956687 -4.305417 0.000000 0.000000 0.000000 -6.600808 5.430341 -4.264841 0.283555 2.057704 0.512953 0.000000 0.000000 0.000000 -5.230132 5.019941 -4.536593 -1.857961 -17.740049 -0.090515 -8.204140 7.396196 -42.705450 -27.711025 -40.755725 -25.218937 0.000000 0.000000 0.000000 -5.790121 6.353448 -4.055112 -5.038625 23.278340 -0.872242 17.035813 -45.857989 55.845693 -28.345620 57.001514 28.384460 0.000000 0.000000 0.000000 
-5.035048 78.850845 0.501602 0.000000 0.000000 0.000000 7.681501 -56.619475 10.486035 -67.319362 17.826411 45.439001 54.656874 -20.351278 3.096305 7.455175 -1.116929 -17.385820 0.000000 0.000000 0.000000 7.158062 -55.814206 9.481230 -37.336560 4.896025 -31.496424 58.437002 6.984660 -3.858398 -28.415489 2.499448 27.090567 0.000000 0.000000 0.000000 7.309936 -56.643582 10.283554 0.068871 -0.511655 -0.580610 16.313683 2.986700 -2.551185 4.086636 4.717206 -4.284407 0.000000 0.000000 0.000000 -6.895124 5.315050 -4.224519 0.049122 2.208577 0.462923 0.000000 0.000000 0.000000 -5.153621 4.824397 -4.519036 -1.908918 -17.785920 0.044891 -8.389508 8.149323 -42.392071 -28.527250 -41.497047 -26.058080 0.000000 0.000000 0.000000 -5.553091 6.224069 -3.981834 -4.929710 22.332319 -1.817023 17.338700 -47.587881 55.104665 -30.819388 59.091020 29.966953 0.000000 0.000000 0.000000 
-5.102616 78.922493 0.401058 0.000000 0.000000 0.000000 6.636472 -56.880057 9.819690 -66.138026 17.804995 45.809085 55.146056 -19.599405 3.623076 6.149525 -0.739719 -17.652486 0.000000 0.000000 0.000000 6.344449 -56.011827 8.833771 -38.092904 5.113154 -30.817113 57.905128 8.042216 -3.948538 -26.125200 3.953603 26.371220 0.000000 0.000000 0.000000 6.688695 -57.153312 9.798171 0.222047 -0.894349 -0.540934 16.161618 2.859502 -2.125836 4.235105 4.405273 -4.218868 0.000000 0.000000 0.000000 -7.148686 5.087809 -4.114281 -0.124144 2.424877 0.377822 0.000000 0.000000 0.000000 -5.132507 4.551127 -4.516731 -1.955766 -17.704433 0.141343 -7.932308 8.584300 -42.062805 -29.619262 -42.391149 -27.246813 0.000000 0.000000 0.000000 -5.459865 5.980361 -3.854768 -4.793072 21.672260 -2.949508 16.272979 -48.722448 53.317037 -31.666475 59.772994 29.897749 0.000000 0.000000 0.000000 
